PathFileType	4	(X/Y/Z)	s01c0403.trc
DataRate	CameraRate	NumFrames	NumMarkers	Units	OrigDataRate	OrigDataStartFrame	OrigNumFrames
200	200	4	47	mm	200	1250	2000
Frame#	Time	racr			lacr			c7			jug			rlel			rdr			llel			ldr			lic			ric			lasi			rasi			rpsi			lpsi			rgt			lgt			rth1			rth2			rth3			rth4			rlfc			rsh1			rsh2			rsh3			rsh4			rlmal			rmmal			rcal			rtoe			rmt5			lth1			lth2			lth4			lth3			llfc			lsh1			lsh2			lsh3			lsh4			llmal			lmmal			lcal			ltoe			lmt5			SBIKE			LBIKE			RBIKE			
		X1	Y1	Z1	X2	Y2	Z2	X3	Y3	Z3	X4	Y4	Z4	X5	Y5	Z5	X6	Y6	Z6	X7	Y7	Z7	X8	Y8	Z8	X9	Y9	Z9	X10	Y10	Z10	X11	Y11	Z11	X12	Y12	Z12	X13	Y13	Z13	X14	Y14	Z14	X15	Y15	Z15	X16	Y16	Z16	X17	Y17	Z17	X18	Y18	Z18	X19	Y19	Z19	X20	Y20	Z20	X21	Y21	Z21	X22	Y22	Z22	X23	Y23	Z23	X24	Y24	Z24	X25	Y25	Z25	X26	Y26	Z26	X27	Y27	Z27	X28	Y28	Z28	X29	Y29	Z29	X30	Y30	Z30	X31	Y31	Z31	X32	Y32	Z32	X33	Y33	Z33	X34	Y34	Z34	X35	Y35	Z35	X36	Y36	Z36	X37	Y37	Z37	X38	Y38	Z38	X39	Y39	Z39	X40	Y40	Z40	X41	Y41	Z41	X42	Y42	Z42	X43	Y43	Z43	X44	Y44	Z44	X45	Y45	Z45	X46	Y46	Z46	X47	Y47	Z47	
1250	6.2500	717.607178	1339.328979	-44.518829	739.093079	1290.694336	-418.547058	716.408447	1419.993896	-228.642761	703.248291	1254.660645	-219.351028	579.828552	1090.457886	65.707123	707.219543	896.824707	-30.069416	569.434143	1079.642212	-550.213623	694.849976	896.545471	-450.592743	362.364655	1204.850220	-416.643341	324.881714	1234.538696	-98.407310	351.048462	1156.396118	-399.317810	357.178833	1187.842529	-128.338303	206.970657	1267.668213	-214.559219	212.752289	1261.936157	-320.973083	285.586456	1134.640625	-62.987289	261.531067	1073.354004	-438.200287	383.800446	1055.108276	-47.866623	459.874908	1021.117676	-47.694534	539.099487	977.846313	-55.082539	485.355988	1069.167480	-65.166466	608.489502	900.124817	-77.634850	530.288147	827.414307	-53.788010	470.546661	766.072266	-56.853443	402.267914	710.499573	-71.100220	505.087555	732.057190	-91.981644	291.033356	627.283264	-94.995300	334.280548	616.566833	-170.829117	236.400330	626.566345	-150.190720	434.565735	442.151367	-132.858521	333.995026	484.600739	-64.950584	260.759308	955.650085	-445.689087	289.977020	870.674866	-447.173645	339.599091	886.552246	-451.685425	308.396393	788.901855	-432.422455	328.040253	663.548706	-422.073669	246.840897	590.562500	-449.120300	210.034561	512.661316	-440.643982	172.225403	436.562805	-427.377075	264.434387	489.892883	-421.500824	123.718872	320.648285	-413.462494	88.318779	286.212311	-379.450836	75.638451	321.784546	-371.748505	275.485382	129.776260	-376.445312	180.228088	178.132660	-442.733398	-225.481277	892.888794	-254.027573	-13.385240	84.882774	-457.916626	-23.158085	81.011925	-57.854614	
1251	6.2550	717.433655	1336.717529	-43.126503	739.532104	1291.044556	-416.647064	716.515625	1419.241821	-226.597366	702.269165	1253.726929	-218.110214	577.889648	1089.088623	66.896286	706.736450	896.961487	-30.128990	571.039368	1079.893921	-548.824951	695.516785	896.417175	-449.934387	362.057556	1207.001343	-416.001923	323.925934	1236.012817	-97.675117	351.100098	1158.166260	-398.645752	357.435822	1189.893799	-126.485817	206.996353	1268.393311	-214.341721	212.539230	1263.161377	-320.549744	285.177826	1135.595825	-63.321697	262.495941	1074.627563	-438.011139	383.301849	1054.877075	-48.395481	459.071075	1020.087280	-48.375481	537.869934	976.293335	-55.824417	484.969635	1068.114868	-65.777473	606.481934	896.815125	-79.158722	529.283508	823.200317	-55.362129	469.801147	761.583435	-58.020142	401.759186	705.683716	-71.261261	504.518951	727.426697	-92.806396	292.486542	619.584473	-94.126122	335.409760	610.910645	-170.835281	236.558975	616.815369	-149.494675	444.144379	442.033112	-132.034805	341.324249	479.290894	-64.255417	263.821075	956.297058	-444.946991	294.282959	871.865173	-445.734802	343.675659	888.540039	-450.074493	314.189331	790.424561	-430.913910	332.957916	665.244080	-420.752502	249.834320	594.146423	-447.976593	210.985397	517.225342	-439.473663	171.181061	442.308075	-426.351807	264.714539	493.031158	-420.175690	119.189896	327.930573	-412.922577	91.221298	294.984314	-371.848389	70.897079	329.757263	-370.688629	265.905518	132.654572	-376.678680	172.088028	183.968155	-442.280426	-225.407288	892.987915	-253.727249	-13.383729	85.018745	-457.875458	-23.140493	81.058716	-57.800186	
1252	6.2600	716.968506	1333.808228	-43.131264	739.919617	1291.249390	-414.826233	716.610107	1418.556030	-224.855301	701.268860	1252.740234	-217.134644	576.386475	1087.564331	68.150948	706.209717	897.001892	-30.098503	572.482239	1080.058350	-547.322510	696.048096	896.345886	-449.444427	361.595886	1209.365479	-415.657898	323.383606	1237.389160	-96.967766	351.114075	1160.182251	-398.176666	356.982452	1189.683228	-126.162621	207.104828	1268.958496	-213.981522	212.267227	1264.275513	-319.953796	284.833557	1136.236816	-63.655064	263.205322	1076.012207	-437.768127	382.893585	1054.240479	-48.683174	458.284698	1018.641663	-49.021820	536.645020	973.994019	-56.719112	484.585968	1066.371704	-66.248779	605.461792	892.617798	-80.805931	527.470459	818.198181	-56.964748	468.489868	756.155884	-59.109104	400.938416	699.515625	-71.785515	503.447601	721.867249	-93.605980	293.791016	610.845154	-93.615692	336.348755	604.084778	-171.037277	236.973663	605.889587	-148.563812	452.780670	441.267273	-131.747742	348.430084	473.286255	-63.527145	267.123749	956.734619	-444.101959	299.127289	873.032593	-444.280914	348.280121	890.624695	-448.134705	320.730042	792.002808	-429.483734	338.723297	666.931885	-419.402924	253.781097	597.739014	-446.924286	212.809143	522.086060	-438.485626	170.867081	448.243683	-425.545197	265.801788	496.331604	-418.819946	114.809166	336.276733	-413.575378	100.751167	307.900177	-363.337555	66.801521	338.150635	-369.687256	256.651550	136.019394	-376.832886	164.407211	190.185516	-441.711548	-225.299774	893.087463	-253.454483	-13.331151	85.222649	-457.857849	-23.103046	81.091965	-57.758110	
1253	6.2650	717.219177	1331.241089	-40.546627	740.287231	1291.357910	-413.169861	716.715088	1417.795288	-223.192078	700.357788	1251.825195	-216.298431	574.432190	1085.862671	69.432030	705.682251	897.005493	-29.973873	573.583801	1080.211548	-545.951965	696.401978	896.290894	-449.164642	360.985504	1211.835449	-415.669739	323.086792	1238.366577	-96.267532	351.006531	1162.215210	-397.832092	357.356140	1191.165894	-124.403732	207.229889	1269.476685	-213.409485	211.862549	1265.286743	-319.170380	284.484192	1136.731201	-63.997326	263.618958	1077.412109	-437.525543	382.566162	1053.070557	-49.000534	457.473480	1016.585632	-49.618198	535.409241	971.029663	-57.729256	484.312805	1064.063599	-66.665611	604.388489	887.721069	-82.689423	525.142517	812.448669	-58.514080	466.867126	749.717529	-60.144596	399.866058	692.248962	-72.500504	502.226044	715.542847	-94.319817	294.791229	601.398071	-93.472015	337.199646	596.152710	-171.450851	237.501862	593.992371	-148.009903	460.878021	439.811981	-131.408798	355.279297	466.448029	-62.894157	270.571350	957.077026	-443.340393	304.381500	874.179810	-442.872467	353.169586	892.823853	-446.043610	327.973450	793.769470	-428.166321	345.169922	668.556946	-417.946777	258.423828	601.516174	-445.966370	215.386673	527.036194	-437.763245	171.313263	454.421143	-425.000122	267.462524	499.891174	-417.496735	112.139122	343.555145	-411.908081	110.320770	320.838623	-356.060394	63.290684	347.136322	-368.783600	247.743576	139.704453	-377.032745	157.076447	196.857468	-441.236176	-225.125198	893.206543	-253.085358	-13.274327	85.418442	-457.781403	-23.054611	81.116379	-57.732342	
